{
	"asset":{
		"version":"2.0",
		"generator":"Created using the official Cinema 4D glTF Exporter 1.000x284978"
	},
	"scenes":[{
		"nodes":[0]
	}],
	"nodes":[{
		"name":"警报器",
		"translation":[0.0,
		0.0,
		0.0],
		"rotation":[0.7071067690849304,
		0.0,
		0.0,
		-0.7071067690849304],
		"scale":[100.0,
		100.0,
		100.0],
		"children":[1,
		8,
		9]
	},
	{
		"name":"Model",
		"translation":[0.0,
		1.4581174131609796e-14,
		65.66777038574219],
		"rotation":[0.0,
		0.0,
		0.0,
		-1.0],
		"scale":[1.0,
		1.0,
		1.0],
		"children":[2,
		6]
	},
	{
		"name":"Group1",
		"translation":[0.010913915932178498,
		-0.017439795657992364,
		-2.3361854553222658],
		"rotation":[6.972101301208741e-16,
		1.7915522398970783e-16,
		-0.6087361574172974,
		-0.7933726906776428],
		"scale":[1.0,
		1.0,
		1.0],
		"children":[3]
	},
	{
		"name":"Mesh1",
		"translation":[-63.24134063720703,
		-60.81926727294922,
		-145.93716430664063],
		"rotation":[0.0,
		-3.308722450212111e-24,
		0.0,
		-1.0],
		"scale":[1.0000001192092896,
		1.0000001192092896,
		1.0],
		"children":[4,
		5]
	},
	{
		"name":"Mesh1-M_0131_Silver",
		"translation":[1.4210854715202005e-14,
		-0.00000762939453125,
		1.4210854715202005e-14],
		"rotation":[0.0,
		0.0,
		0.0,
		-1.0],
		"scale":[1.0000001192092896,
		1.0000001192092896,
		1.0],
		"mesh":0
	},
	{
		"name":"Mesh1-FrontColor",
		"translation":[7.815970093361102e-14,
		-0.00000762939453125,
		2.313558009449726e-14],
		"rotation":[-4.930380657631324e-31,
		-1.6023737137301803e-31,
		0.0,
		-1.0],
		"scale":[1.0000001192092896,
		1.0000001192092896,
		1.0],
		"mesh":1
	},
	{
		"name":"Mesh2",
		"translation":[-0.07983694970607758,
		0.12757475674152375,
		17.08953857421875],
		"rotation":[0.0,
		0.0,
		0.0,
		-1.0],
		"scale":[1.0,
		1.0,
		1.0],
		"children":[7]
	},
	{
		"name":"Mesh2-M_0020_Red",
		"translation":[0.0,
		0.0,
		2.881191196803305e-31],
		"rotation":[0.0,
		0.0,
		0.0,
		-1.0],
		"scale":[1.0,
		1.0,
		1.0],
		"mesh":2
	},
	{
		"name":"圆柱体.1",
		"translation":[0.0,
		3.1459163650027299e-15,
		14.167948722839356],
		"rotation":[0.0,
		0.0,
		0.0,
		-1.0],
		"scale":[1.0,
		1.0,
		1.0],
		"mesh":3
	},
	{
		"name":"圆柱体",
		"translation":[0.0,
		6.6358449971374269e-15,
		29.88518524169922],
		"rotation":[0.0,
		0.0,
		0.0,
		-1.0],
		"scale":[1.0,
		1.0,
		1.0],
		"mesh":4
	}],
	"materials":[{
		"pbrMetallicRoughness":{
			"baseColorFactor":[0.7529411911964417,
			0.7529411911964417,
			0.7529411911964417,
			1.0],
			"metallicFactor":0.0,
			"roughnessFactor":0.5776649907368996
		},
		"emissiveFactor":[0.0,
		0.0,
		0.0],
		"alphaMode":"OPAQUE",
		"doubleSided":false,
		"name":"M_0131_Silver"
	},
	{
		"pbrMetallicRoughness":{
			"baseColorFactor":[1.0,
			1.0,
			0.6300000000000001,
			1.0],
			"metallicFactor":1.0,
			"roughnessFactor":1.0
		},
		"emissiveFactor":[0.9800000190734863,
		0.7866133451461792,
		0.2547999918460846],
		"alphaMode":"OPAQUE",
		"doubleSided":false,
		"name":"FrontColor"
	},
	{
		"pbrMetallicRoughness":{
			"baseColorFactor":[1.0,
			0.0,
			0.0,
			0.4],
			"metallicFactor":0.0,
			"roughnessFactor":0.5776649907368996
		},
		"emissiveFactor":[0.0,
		0.0,
		0.0],
		"alphaMode":"BLEND",
		"doubleSided":false,
		"name":"M_0020_Red"
	}],
	"meshes":[{
		"name":"Mesh1-M_0131_Silver",
		"primitives":[{
			"attributes":{
				"POSITION":3,
				"NORMAL":4,
				"TEXCOORD_0":5
			},
			"indices":2,
			"material":0
		}]
	},
	{
		"name":"Mesh1-FrontColor",
		"primitives":[{
			"attributes":{
				"POSITION":7,
				"NORMAL":8,
				"TEXCOORD_0":9
			},
			"indices":6,
			"material":1
		}]
	},
	{
		"name":"Mesh2-M_0020_Red",
		"primitives":[{
			"attributes":{
				"POSITION":11,
				"NORMAL":12,
				"TEXCOORD_0":13
			},
			"indices":10,
			"material":2
		}]
	},
	{
		"name":"圆柱体.1",
		"primitives":[{
			"attributes":{
				"POSITION":15,
				"NORMAL":16,
				"TEXCOORD_0":17
			},
			"indices":14,
			"material":0
		}]
	},
	{
		"name":"圆柱体",
		"primitives":[{
			"attributes":{
				"POSITION":19,
				"NORMAL":20,
				"TEXCOORD_0":21
			},
			"indices":18,
			"material":0
		}]
	}],
	"accessors":[{
		"bufferView":0,
		"type":"SCALAR",
		"componentType":5126,
		"max":[1.0],
		"count":25,
		"byteOffset":0,
		"min":[0.0]
	},
	{
		"bufferView":0,
		"type":"VEC4",
		"componentType":5126,
		"max":[1.0284788564416184e-13,
		1.0269340038710981e-13,
		1.0,
		0.9914464354515076],
		"count":25,
		"byteOffset":100,
		"min":[-4.402906641283211e-16,
		-9.317501333200654e-14,
		-0.7933359146118164,
		-1.0]
	},
	{
		"bufferView":1,
		"type":"SCALAR",
		"componentType":5123,
		"max":[1112],
		"count":2460,
		"byteOffset":0,
		"min":[0]
	},
	{
		"bufferView":2,
		"type":"VEC3",
		"componentType":5126,
		"max":[96.01838684082031,
		92.4145278930664,
		166.82749938964845],
		"count":1113,
		"byteOffset":0,
		"min":[30.128324508666993,
		30.103357315063478,
		118.14154815673828]
	},
	{
		"bufferView":2,
		"type":"VEC3",
		"componentType":5126,
		"max":[1.0,
		1.0,
		1.0],
		"count":1113,
		"byteOffset":12,
		"min":[-1.0,
		-1.0,
		-1.0]
	},
	{
		"bufferView":2,
		"type":"VEC2",
		"componentType":5126,
		"max":[50.46377182006836,
		26.2052001953125],
		"count":1113,
		"byteOffset":24,
		"min":[-50.46377182006836,
		-46.84498596191406]
	},
	{
		"bufferView":3,
		"type":"SCALAR",
		"componentType":5123,
		"max":[4775],
		"count":7362,
		"byteOffset":0,
		"min":[0]
	},
	{
		"bufferView":4,
		"type":"VEC3",
		"componentType":5126,
		"max":[99.09329223632813,
		95.48942565917969,
		166.82749938964845],
		"count":4776,
		"byteOffset":0,
		"min":[27.053422927856447,
		27.02845573425293,
		125.82880401611328]
	},
	{
		"bufferView":4,
		"type":"VEC3",
		"componentType":5126,
		"max":[1.0,
		1.0,
		1.0],
		"count":4776,
		"byteOffset":12,
		"min":[-1.0,
		-1.0,
		-1.0]
	},
	{
		"bufferView":4,
		"type":"VEC2",
		"componentType":5126,
		"max":[50.463768005371097,
		-4.625],
		"count":4776,
		"byteOffset":24,
		"min":[-50.463768005371097,
		-34.625]
	},
	{
		"bufferView":5,
		"type":"SCALAR",
		"componentType":5123,
		"max":[791],
		"count":1224,
		"byteOffset":0,
		"min":[0]
	},
	{
		"bufferView":6,
		"type":"VEC3",
		"componentType":5126,
		"max":[47.906192779541019,
		48.346065521240237,
		7.957409381866455],
		"count":792,
		"byteOffset":0,
		"min":[-48.70014572143555,
		-48.26027297973633,
		-47.22134780883789]
	},
	{
		"bufferView":6,
		"type":"VEC3",
		"componentType":5126,
		"max":[0.9914449453353882,
		0.9914448261260986,
		1.0],
		"count":792,
		"byteOffset":12,
		"min":[-0.9914448261260986,
		-0.9914449453353882,
		0.0]
	},
	{
		"bufferView":6,
		"type":"VEC2",
		"componentType":5126,
		"max":[106.96731567382813,
		90.47731018066406],
		"count":792,
		"byteOffset":24,
		"min":[-93.22943115234375,
		-166.94723510742188]
	},
	{
		"bufferView":7,
		"type":"SCALAR",
		"componentType":5123,
		"max":[204],
		"count":864,
		"byteOffset":0,
		"min":[0]
	},
	{
		"bufferView":8,
		"type":"VEC3",
		"componentType":5126,
		"max":[49.97969055175781,
		49.97969055175781,
		12.75580883026123],
		"count":205,
		"byteOffset":0,
		"min":[-49.97969055175781,
		-49.97969055175781,
		-12.75580883026123]
	},
	{
		"bufferView":8,
		"type":"VEC3",
		"componentType":5126,
		"max":[0.9870339035987854,
		0.9945258498191834,
		1.0],
		"count":205,
		"byteOffset":12,
		"min":[-0.9945258498191834,
		-0.9945258498191834,
		-1.0]
	},
	{
		"bufferView":8,
		"type":"VEC2",
		"componentType":5126,
		"max":[1.0216622352600098,
		1.0216622352600098],
		"count":205,
		"byteOffset":24,
		"min":[-0.021662242710590364,
		-0.021662235260009767]
	},
	{
		"bufferView":9,
		"type":"SCALAR",
		"componentType":5123,
		"max":[99],
		"count":288,
		"byteOffset":0,
		"min":[0]
	},
	{
		"bufferView":10,
		"type":"VEC3",
		"componentType":5126,
		"max":[51.08057403564453,
		51.08057403564453,
		5.998571872711182],
		"count":100,
		"byteOffset":0,
		"min":[-51.08057403564453,
		-51.08057403564453,
		-5.998571872711182]
	},
	{
		"bufferView":10,
		"type":"VEC3",
		"componentType":5126,
		"max":[0.9914448857307434,
		0.9990384578704834,
		1.0],
		"count":100,
		"byteOffset":12,
		"min":[-0.9990384578704834,
		-0.9990384578704834,
		-1.0]
	},
	{
		"bufferView":10,
		"type":"VEC2",
		"componentType":5126,
		"max":[1.0,
		1.0],
		"count":100,
		"byteOffset":24,
		"min":[0.0,
		0.0]
	}],
	"bufferViews":[{
		"buffer":0,
		"byteOffset":0,
		"byteLength":500
	},
	{
		"buffer":1,
		"byteOffset":0,
		"byteLength":4920,
		"target":34963
	},
	{
		"buffer":1,
		"byteOffset":4920,
		"byteLength":35616,
		"target":34962,
		"byteStride":32
	},
	{
		"buffer":2,
		"byteOffset":0,
		"byteLength":14724,
		"target":34963
	},
	{
		"buffer":2,
		"byteOffset":14724,
		"byteLength":152832,
		"target":34962,
		"byteStride":32
	},
	{
		"buffer":3,
		"byteOffset":0,
		"byteLength":2448,
		"target":34963
	},
	{
		"buffer":3,
		"byteOffset":2448,
		"byteLength":25344,
		"target":34962,
		"byteStride":32
	},
	{
		"buffer":4,
		"byteOffset":0,
		"byteLength":1728,
		"target":34963
	},
	{
		"buffer":4,
		"byteOffset":1728,
		"byteLength":6560,
		"target":34962,
		"byteStride":32
	},
	{
		"buffer":5,
		"byteOffset":0,
		"byteLength":576,
		"target":34963
	},
	{
		"buffer":5,
		"byteOffset":576,
		"byteLength":3200,
		"target":34962,
		"byteStride":32
	}],
	"animations":[{
		"samplers":[{
			"interpolation":"LINEAR",
			"input":0,
			"output":1
		}],
		"channels":[{
			"sampler":0,
			"target":{
				"node":2,
				"path":"rotation"
			}
		}]
	}],
	"buffers":[{
		"uri":"data:application/octet-stream;base64,",
		"byteLength":500
	},
	{
		"uri":"data:application/octet-stream;base64,",
		"byteLength":40536
	},
	{
		"uri":"data:application/octet-stream;base64,",
		"byteLength":167556
	},
	{
		"uri":"data:application/octet-stream;base64,",
		"byteLength":27792
	},
	{
		"uri":"data:application/octet-stream;base64,",
		"byteLength":8288
	},
	{
		"uri":"data:application/octet-stream;base64,",
		"byteLength":3776
	}]
}